<svg width="277" height="242" viewBox="0 0 277 242" fill="none" xmlns="http://www.w3.org/2000/svg">
<path d="M209.361 47.4334L191.881 64.9131L209.361 82.3928L226.84 64.9131L209.361 47.4334Z" fill="#010B40"/>
<path d="M185.635 23.7234L168.156 41.2031L185.635 58.6828L203.115 41.2031L185.635 23.7234Z" fill="#010B40"/>
<path d="M186.3 70.4952L168.821 87.9749L186.3 105.455L203.78 87.9749L186.3 70.4952Z" fill="#010B40"/>
<path d="M161.925 47.4385L144.446 64.9182L161.925 82.3979L179.405 64.9182L161.925 47.4385Z" fill="#010B40"/>
<path d="M161.921 0.0034741L144.441 17.4832L161.921 34.9628L179.4 17.4832L161.921 0.0034741Z" fill="#010B40"/>
<path d="M162.573 94.2132L145.094 111.693L162.573 129.173L180.053 111.693L162.573 94.2132Z" fill="#010B40"/>
<path d="M4.55 182.331H0V177.991H19.74C34.58 177.991 44.45 187.021 44.45 202.561C44.45 218.101 34.58 227.201 19.74 227.201H8.82C5.81 227.201 4.55 225.941 4.55 222.931V182.331ZM10.99 222.871H19.25C31.36 222.871 39.34 215.731 39.34 202.571C39.34 189.411 31.29 182.341 19.25 182.341H9.45V221.331C9.45 222.381 10.01 222.871 10.99 222.871Z" fill="#010B40"/>
<path d="M54.0401 197.671C54.0401 196.691 53.48 196.131 52.5 196.131H49.5601V192.001H54.5301C57.5401 192.001 58.8 193.261 58.8 196.271V221.541C58.8 222.591 59.3601 223.081 60.3401 223.081H63.2801V227.211H58.3101C55.3001 227.211 54.0401 225.951 54.0401 222.941V197.671ZM53.9001 177.991H58.5201V184.011H53.9001V177.991Z" fill="#010B40"/>
<path d="M83.3699 191.161C92.8199 191.161 95.0599 197.181 95.0599 197.181H95.1999V195.851C95.1999 193.331 96.3199 192.001 99.1899 192.001H104.09V196.131H101.22C100.24 196.131 99.6799 196.621 99.6799 197.671V226.371C99.6799 237.571 91.4199 241.911 82.7399 241.911C78.7499 241.911 74.6899 240.861 71.2599 239.111L73.0799 235.121C73.0799 235.121 77.4199 237.571 82.5999 237.571C89.4599 237.571 94.9199 234.351 94.9199 226.511V223.431C94.9199 222.101 94.9899 220.911 94.9899 220.911H94.8499C92.7499 224.761 89.2499 227.001 83.7899 227.001C74.3399 227.001 68.1099 219.511 68.1099 208.941C68.1099 198.371 73.9199 191.161 83.3699 191.161ZM94.9899 208.941C94.9899 198.651 90.0899 195.501 83.8599 195.501C76.9999 195.501 73.0099 200.471 73.0099 208.871C73.0099 217.271 77.5599 222.731 84.4899 222.731C90.0899 222.731 94.9899 219.301 94.9899 208.941Z" fill="#010B40"/>
<path d="M112.14 197.671C112.14 196.691 111.58 196.131 110.6 196.131H107.66V192.001H112.63C115.64 192.001 116.9 193.261 116.9 196.271V221.541C116.9 222.591 117.46 223.081 118.44 223.081H121.38V227.211H116.41C113.4 227.211 112.14 225.951 112.14 222.941V197.671ZM112 177.991H116.62V184.011H112V177.991Z" fill="#010B40"/>
<path d="M127.89 183.871C127.54 182.541 126.63 182.331 125.3 182.331H124.46V177.991H126.63C130.13 177.991 131.74 178.621 132.58 182.051L141.12 216.001C141.75 218.521 142.17 221.251 142.17 221.251H142.31C142.31 221.251 142.94 218.521 143.64 216.001L154.49 178.201H159.32L169.19 216.001C169.89 218.521 170.31 221.251 170.31 221.251H170.45C170.45 221.251 170.94 218.521 171.57 216.001L180.11 182.051C180.95 178.621 182.56 177.991 186.06 177.991H188.23V182.331H187.46C186.06 182.331 185.22 182.541 184.87 183.871L173.53 227.201H167.72L158.55 192.971C157.71 189.821 156.94 185.691 156.94 185.691H156.8C156.8 185.691 155.96 189.751 155.05 192.901L144.97 227.201H139.16L127.89 183.871Z" fill="#1E90FF"/>
<path d="M195.86 197.671C195.86 196.691 195.3 196.131 194.32 196.131H191.38V192.001H196.35C199.36 192.001 200.62 193.261 200.62 196.271V221.541C200.62 222.591 201.18 223.081 202.16 223.081H205.1V227.211H200.13C197.12 227.211 195.86 225.951 195.86 222.941V197.671ZM195.72 177.991H200.34V184.011H195.72V177.991Z" fill="#1E90FF"/>
<path d="M209.72 224.131L229.53 199.421C230.86 197.741 232.33 196.201 232.33 196.201V196.061C232.33 196.061 231.14 196.201 228.83 196.201H215.95C214.97 196.201 214.41 196.691 214.41 197.741V200.471H209.93V196.271C209.93 193.261 211.19 192.001 214.2 192.001H238.63V195.151L218.89 219.791C217.49 221.471 215.95 223.011 215.95 223.011V223.151C215.95 223.151 217.21 223.011 219.52 223.011H234.08C235.06 223.011 235.62 222.521 235.62 221.471V218.741H240.1V222.941C240.1 225.951 238.84 227.211 235.83 227.211H209.72V224.131Z" fill="#1E90FF"/>
<path d="M261.38 191.161C271.11 191.161 276.15 198.651 276.15 207.401C276.15 208.241 276.01 209.781 276.01 209.781H248.99C249.13 218.671 255.36 223.781 262.64 223.781C269.08 223.781 273.21 219.441 273.21 219.441L275.52 223.011C275.52 223.011 270.41 228.051 262.43 228.051C252 228.051 244.02 220.491 244.02 209.641C244.02 198.091 251.93 191.161 261.38 191.161ZM271.25 206.001C270.97 198.721 266.49 195.151 261.31 195.151C255.5 195.151 250.39 198.931 249.2 206.001H271.25Z" fill="#1E90FF"/>
<path d="M45.514 64.9127L62.9937 82.3923L80.4733 64.9127L62.9937 47.433L45.514 64.9127Z" fill="#1E90FF"/>
<path d="M69.2361 41.1998L86.7158 58.6794L104.196 41.1998L86.7158 23.7201L69.2361 41.1998Z" fill="#1E90FF"/>
<path d="M68.5809 87.9781L86.0605 105.458L103.54 87.9781L86.0605 70.4984L68.5809 87.9781Z" fill="#1E90FF"/>
<path d="M92.9559 64.9146L110.436 82.3943L127.915 64.9146L110.436 47.4349L92.9559 64.9146Z" fill="#1E90FF"/>
<path d="M92.951 17.4798L110.431 34.9595L127.91 17.4798L110.431 0.000112266L92.951 17.4798Z" fill="#1E90FF"/>
<path d="M92.9505 111.04L110.43 128.52L127.91 111.04L110.43 93.5602L92.9505 111.04Z" fill="#1E90FF"/>
</svg>
